<svg width="72" height="72" xmlns="http://www.w3.org/2000/svg">

 <g>
  <title>background</title>
  <rect fill="none" id="canvas_background" height="402" width="582" y="-1" x="-1"/>
 </g>
 <g>
  <title>Layer 1</title>
  <path id="svg_1" fill="#ECEFF2" d="m26.8218,70.0939c12.596,-5.718 24.21,-3.118 30.28,-5.872c6.07,-2.756 17.234,-12.032 4.56,-39.956c-12.674,-27.92398 -31.682,-24.241977 -38.36,-21.20998c-31.26398,14.18798 -18.78998,77.16198 3.52,67.03798z"/>
  <path id="svg_2" fill="#F3F3F1" d="m27.2939,19.7l-0.18,0l4.686,-3.748c1.02,-0.812 0.44,-2.452 -0.854,-2.452l-12.814,0c-1.296,0 -1.874,1.64 -0.854,2.452l4.684,3.748l-0.18,0c-4.768,2.796 -8.612,10.76 -8.612,16.534c0,4.134 2.066,8.266 6.888,8.266l9.3,0c4.822,0 6.888,-4.134 6.888,-8.266c0.004,-5.774 -4.184,-13.738 -8.952,-16.534z"/>
  <path id="svg_3" fill="#E1E6EA" d="m17.6719,36.234c0,-5.772 3.844,-13.736 8.612,-16.534l0.18,0l-4.684,-3.748c-1.02,-0.812 -0.44,-2.452 0.854,-2.452l-4.5,0c-1.296,0 -1.874,1.64 -0.854,2.452l4.684,3.748l-0.18,0c-4.768,2.796 -8.612,10.76 -8.612,16.534c0,4.134 2.066,8.266 6.888,8.266l4.5,0c-4.822,0 -6.888,-4.134 -6.888,-8.266z"/>
  <path id="svg_4" fill="#F3F3F1" d="m49.7158,19.7l-0.18,0l4.684,-3.748c1.02,-0.812 0.44,-2.452 -0.854,-2.452l-12.814,0c-1.296,0 -1.874,1.64 -0.854,2.452l4.684,3.748l-0.18,0c-4.768,2.796 -8.612,10.76 -8.612,16.534c0,4.134 2.066,8.266 6.888,8.266l9.3,0c4.822,0 6.888,-4.134 6.888,-8.266c0.006,-5.774 -4.182,-13.738 -8.95,-16.534z"/>
  <path id="svg_5" fill="#E1E6EA" d="m40.0938,36.234c0,-5.772 3.844,-13.736 8.612,-16.534l0.18,0l-4.686,-3.748c-1.02,-0.812 -0.44,-2.452 0.854,-2.452l-4.5,0c-1.296,0 -1.874,1.64 -0.854,2.452l4.684,3.748l-0.18,0c-4.768,2.796 -8.612,10.76 -8.612,16.534c0,4.134 2.066,8.266 6.888,8.266l4.5,0c-4.818,0 -6.886,-4.134 -6.886,-8.266z"/>
  <path id="svg_6" fill="#2A6CEA" d="m38.835,33.6999l-0.18,0l4.684,-3.748c1.02,-0.812 0.44,-2.452 -0.854,-2.452l-12.814,0c-1.296,0 -1.874,1.64 -0.854,2.452l4.684,3.748l-0.18,0c-4.768,2.796 -8.612,10.76 -8.612,16.534c0,4.134 2.066,8.266 6.888,8.266l9.3,0c4.822,0 6.888,-4.134 6.888,-8.266c0.004,-5.774 -4.184,-13.738 -8.95,-16.534z"/>
  <path id="svg_7" fill="white" d="m35.06,52.4c-0.396,0 -0.78,-0.158 -1.06,-0.44l-4,-4l2.122,-2.122l2.778,2.778l4.96,-6.616l2.398,1.8l-6,8c-0.26,0.348 -0.658,0.566 -1.094,0.596c-0.034,0.004 -0.068,0.004 -0.104,0.004z"/>
  <path id="svg_8" fill-opacity="0.1" fill="#191C1F" d="m29.2129,50.2339c0,-5.772 3.844,-13.736 8.612,-16.534l0.18,0l-4.684,-3.748c-1.02,-0.812 -0.44,-2.452 0.854,-2.452l-4.5,0c-1.296,0 -1.874,1.64 -0.854,2.452l4.684,3.748l-0.18,0c-4.768,2.796 -8.612,10.76 -8.612,16.534c0,4.134 2.066,8.266 6.888,8.266l4.5,0c-4.822,0 -6.888,-4.134 -6.888,-8.266z"/>
  <path id="svg_9" fill="#C2C8CD" d="m59.9316,54.8193l2.8285,-2.8284l1.4142,1.4142l-2.8284,2.8285l-1.4143,-1.4143z"/>
  <path id="svg_10" fill="#C2C8CD" d="m51.8008,62.9486l2.8284,-2.8284l1.4142,1.4142l-2.8284,2.8285l-1.4142,-1.4143z"/>
  <path id="svg_11" fill="#C2C8CD" d="m51.8008,53.0505l1.4142,-1.4142l2.8284,2.8284l-1.4142,1.4142l-2.8284,-2.8284z"/>
  <path id="svg_12" fill="#C2C8CD" d="m59.9297,61.1812l1.4142,-1.4142l2.8284,2.8284l-1.4142,1.4142l-2.8284,-2.8284z"/>
  <path id="svg_13" fill="#191C1F" d="m28.3809,20.8721l-1.874,-2.344l4.412,-3.528l-12.102,0l4.412,3.528l-1.874,2.344l-4.684,-3.748c-0.97,-0.772 -1.33,-2.03 -0.92,-3.2c0.408,-1.168 1.474,-1.924 2.71,-1.924l12.814,0c1.238,0 2.3,0.756 2.71,1.926c0.41,1.17 0.048,2.426 -0.92,3.2l-4.684,3.746z"/>
  <path id="svg_14" fill="#191C1F" d="m17.6328,18.2001l14.466,0l0,3l-14.466,0l0,-3z"/>
  <path id="svg_15" fill="#191C1F" d="m20.39,46.0002c-5.796,0 -8.39,-4.906 -8.39,-9.768c0,-5.836 3.84,-14.594 9.352,-17.826l1.518,2.586c-4.12,2.418 -7.87,9.682 -7.87,15.24c0,1.13 0.26,6.768 5.39,6.768l0,3z"/>
  <path id="svg_16" fill="#191C1F" d="m50.6462,20.8721l-1.874,-2.344l4.412,-3.528l-12.102,0l4.412,3.528l-1.874,2.344l-4.684,-3.746c-0.968,-0.774 -1.33,-2.032 -0.92,-3.202c0.41,-1.168 1.474,-1.924 2.71,-1.924l12.814,0c1.238,0 2.3,0.756 2.71,1.926c0.41,1.17 0.048,2.426 -0.92,3.2l-4.684,3.746z"/>
  <path id="svg_17" fill="#191C1F" d="m39.9004,18.2001l14.466,0l0,3l-14.466,0l0,-3z"/>
  <path id="svg_18" fill="#191C1F" d="m51.6109,46.0002l0,-3c5.128,0 5.388,-5.636 5.388,-6.768c0,-5.558 -3.75,-12.822 -7.87,-15.24l1.518,-2.586c5.51,3.232 9.352,11.99 9.352,17.826c0,4.862 -2.594,9.768 -8.388,9.768z"/>
 </g>
</svg>