<svg width="72" height="72" xmlns="http://www.w3.org/2000/svg">

 <g>
  <title>background</title>
  <rect fill="none" id="canvas_background" height="402" width="582" y="-1" x="-1"/>
 </g>
 <g>
  <title>Layer 1</title>
  <path id="svg_1" fill="#ECEFF2" d="m69.8067,40.7101c-7.564,-11.582 -6.76,-23.454 -10.406,-29.036c-3.646,-5.58202 -14.512,-15.20602 -40.186,1.564c-25.67396,16.77 -19.14396,35 -15.13196,41.138c18.77596,28.744 79.12206,6.846 65.72396,-13.666z"/>
  <path id="svg_2" fill="#F3F3F1" d="m37.5,22.892c0,0.46 -0.302,0.856 -0.72,0.992l-9.714,3.182l-3.182,9.714c-0.136,0.418 -0.532,0.72 -0.992,0.72c-0.448,0 -0.824,-0.282 -0.97,-0.668l-8.348,-21.912c-0.054,-0.116 -0.074,-0.24 -0.074,-0.376c0,-0.574 0.47,-1.044 1.044,-1.044c0.136,0 0.26,0.02 0.376,0.074l21.914,8.348c0.384,0.144 0.666,0.52 0.666,0.97z"/>
  <path id="svg_3" fill="#E1E6EA" d="m18.074,14.92c-0.022,-0.048 -0.02,-0.106 -0.032,-0.156l-3.122,-1.19c-0.116,-0.054 -0.24,-0.074 -0.376,-0.074c-0.574,0 -1.044,0.47 -1.044,1.044c0,0.136 0.02,0.26 0.072,0.376l8.348,21.914c0.146,0.386 0.522,0.668 0.97,0.668c0.46,0 0.856,-0.302 0.992,-0.72l1.164,-3.554l-6.972,-18.308z"/>
  <path id="svg_4" fill="#2A6CEA" d="m45,58.5c7.4558,0 13.5,-6.0442 13.5,-13.5c0,-7.4558 -6.0442,-13.5 -13.5,-13.5c-7.4558,0 -13.5,6.0442 -13.5,13.5c0,7.4558 6.0442,13.5 13.5,13.5z"/>
  <path id="svg_5" fill-opacity="0.1" fill="#191C1F" d="m36,45c0,-6.688 4.868,-12.224 11.25,-13.298c-0.734,-0.124 -1.482,-0.202 -2.25,-0.202c-7.456,0 -13.5,6.044 -13.5,13.5c0,7.456 6.044,13.5 13.5,13.5c0.768,0 1.516,-0.08 2.25,-0.202c-6.382,-1.074 -11.25,-6.61 -11.25,-13.298z"/>
  <path id="svg_6" fill="#C2C8CD" d="m60.2578,25.3633l1.4142,-1.4142l2.8284,2.8285l-1.4142,1.4142l-2.8284,-2.8285z"/>
  <path id="svg_7" fill="#C2C8CD" d="m52.1289,17.23l1.4142,-1.4142l2.8284,2.8284l-1.4142,1.4142l-2.8284,-2.8284z"/>
  <path id="svg_8" fill="#C2C8CD" d="m60.6133,18.6459l2.8284,-2.8284l1.4142,1.4142l-2.8284,2.8284l-1.4142,-1.4142z"/>
  <path id="svg_9" fill="#C2C8CD" d="m52.4844,26.7749l2.8284,-2.8284l1.4142,1.4142l-2.8284,2.8284l-1.4142,-1.4142z"/>
  <path id="svg_10" fill="white" d="m49.55,51.6599l-5.5,-4.5c-0.35,-0.284 -0.55,-0.71 -0.55,-1.16l0,-8.5l3,0l0,7.79l4.95,4.05l-1.9,2.32z"/>
  <path id="svg_11" fill="#191C1F" d="m22.89,39.0001c-1.048,0 -2.002,-0.658 -2.374,-1.636l-8.346,-21.91c-0.104,-0.23 -0.17,-0.56 -0.17,-0.912c0,-1.402 1.14,-2.542 2.542,-2.542c0.352,0 0.682,0.066 0.982,0.2l21.84,8.318c0.976,0.372 1.634,1.324 1.634,2.374c0,1.104 -0.706,2.074 -1.754,2.418l-8.992,2.946l-2.946,8.992c-0.342,1.046 -1.312,1.752 -2.416,1.752zm-7.556,-23.664l7.526,19.748l2.78,-8.486c0.148,-0.454 0.506,-0.81 0.958,-0.958l8.486,-2.78l-19.75,-7.524zm-0.948,-0.362c0.006,0.002 0.014,0.006 0.024,0.008l-0.024,-0.008zm0.56,-0.66l0.026,0.068c-0.008,-0.02 -0.016,-0.042 -0.026,-0.068z"/>
 </g>
</svg>