<svg width="72" height="72" xmlns="http://www.w3.org/2000/svg">

 <g>
  <title>background</title>
  <rect fill="none" id="canvas_background" height="402" width="582" y="-1" x="-1"/>
 </g>
 <g>
  <title>Layer 1</title>
  <path id="svg_1" fill="#ECEFF2" d="m69.8067,40.7101c-7.564,-11.582 -6.76,-23.454 -10.406,-29.036c-3.646,-5.58202 -14.512,-15.20602 -40.186,1.564c-25.67396,16.77 -19.14396,35 -15.13196,41.138c18.77596,28.744 79.12206,6.846 65.72396,-13.666z"/>
  <path id="svg_2" fill="#C2C8CD" d="m61.9121,42.0327l1.4142,-1.4142l2.8285,2.8284l-1.4143,1.4142l-2.8284,-2.8284z"/>
  <path id="svg_3" fill="#C2C8CD" d="m53.7812,33.9028l1.4143,-1.4142l2.8284,2.8285l-1.4142,1.4142l-2.8285,-2.8285z"/>
  <path id="svg_4" fill="#C2C8CD" d="m62.2695,35.3271l2.8285,-2.8284l1.4142,1.4142l-2.8285,2.8285l-1.4142,-1.4143z"/>
  <path id="svg_5" fill="#C2C8CD" d="m37.9805,66.1603c-1.654,0 -3,-1.346 -3,-3c0,-1.654 1.346,-3 3,-3c1.654,0 3,1.346 3,3c0,1.654 -1.346,3 -3,3zm0,-4c-0.552,0 -1,0.448 -1,1c0,0.552 0.448,1 1,1c0.552,0 1,-0.448 1,-1c0,-0.552 -0.448,-1 -1,-1z"/>
  <path id="svg_6" fill="#F3F3F1" d="m39.06,33.5001l-22.56,0l0,7l0,14l7,0l6.96,0l15.04,0l0,-13.9l0,-7.1l-6.44,0z"/>
  <path id="svg_7" fill="#2A6CEA" d="m50.5,40.5999l-5,0l0,13.9l2,0l6.958,0l4.042,0l0,-5.9c0,-4.418 -3.582,-8 -8,-8z"/>
  <path id="svg_8" fill="#F3F3F1" d="m27,58.5001c1.933,0 3.5,-1.567 3.5,-3.5c0,-1.933 -1.567,-3.5 -3.5,-3.5c-1.933,0 -3.5,1.567 -3.5,3.5c0,1.933 1.567,3.5 3.5,3.5z"/>
  <path id="svg_9" fill="#F3F3F1" d="m51,58.5001c1.933,0 3.5,-1.567 3.5,-3.5c0,-1.933 -1.567,-3.5 -3.5,-3.5c-1.933,0 -3.5,1.567 -3.5,3.5c0,1.933 1.567,3.5 3.5,3.5z"/>
  <path id="svg_10" fill="#2A6CEA" d="m25,36.5c6.3513,0 11.5,-5.1487 11.5,-11.5c0,-6.3513 -5.1487,-11.5 -11.5,-11.5c-6.3513,0 -11.5,5.1487 -11.5,11.5c0,6.3513 5.1487,11.5 11.5,11.5z"/>
  <path id="svg_11" fill="#E1E6EA" d="m21,36l-5,0l0,6.3333l0,12.6667l5,0l0,-12.6667l0,-6.3333z"/>
  <path id="svg_12" fill-opacity="0.1" fill="#191C1F" d="m45.5,40.5999l0,13.9l2,0l2.5,0l0,-13.9l-4.5,0z"/>
  <path id="svg_13" fill="#D5DBE1" d="m28,55.0001c0,-1.072 0.492,-2.018 1.25,-2.66c-0.61,-0.516 -1.388,-0.84 -2.25,-0.84c-1.932,0 -3.5,1.568 -3.5,3.5c0,1.932 1.568,3.5 3.5,3.5c0.862,0 1.64,-0.324 2.25,-0.84c-0.758,-0.642 -1.25,-1.588 -1.25,-2.66z"/>
  <path id="svg_14" fill="#D5DBE1" d="m52,55.0001c0,-1.072 0.492,-2.018 1.25,-2.66c-0.61,-0.516 -1.388,-0.84 -2.25,-0.84c-1.932,0 -3.5,1.568 -3.5,3.5c0,1.932 1.568,3.5 3.5,3.5c0.862,0 1.64,-0.324 2.25,-0.84c-0.758,-0.642 -1.25,-1.588 -1.25,-2.66z"/>
  <path id="svg_15" fill-opacity="0.1" fill="#191C1F" d="m18,25c0,-5.58 3.976,-10.23 9.25,-11.276c-0.728,-0.146 -1.48,-0.224 -2.25,-0.224c-6.352,0 -11.5,5.148 -11.5,11.5c0,6.352 5.148,11.5 11.5,11.5c0.77,0 1.522,-0.078 2.25,-0.224c-5.274,-1.046 -9.25,-5.696 -9.25,-11.276z"/>
  <path id="svg_16" fill="white" d="m24.9995,30.5002c-0.384,0 -0.768,-0.146 -1.06,-0.44l-6,-6.0001l2.122,-2.122l4.94,4.9401l4.94,-4.9401l2.122,2.122l-6,6.0001c-0.296,0.294 -0.68,0.44 -1.064,0.44z"/>
  <path id="svg_17" fill="#191C1F" d="m25,56.0001l-8.5,0c-0.828,0 -1.5,-0.672 -1.5,-1.5l0,-15.72l3,0l0,14.22l7,0l0,3z"/>
  <path id="svg_18" fill="#191C1F" d="m45.499,56.0001l-16.54,0l0,-3l15.04,0l0,-17.9999l-5.22,0l0,-3l6.72,0c0.828,0 1.5,0.672 1.5,1.5l0,20.9999c0,0.828 -0.672,1.5 -1.5,1.5z"/>
  <path id="svg_19" fill="#191C1F" d="m58.5,56l-5.542,0l0,-3l4.042,0l0,-4.4c0,-3.584 -2.916,-6.5 -6.5,-6.5l-3.5,0l0,10.9l2,0l0,3l-3.5,0c-0.828,0 -1.5,-0.672 -1.5,-1.5l0,-13.9c0,-0.828 0.672,-1.5 1.5,-1.5l5,0c5.238,0 9.5,4.262 9.5,9.5l0,5.9c0,0.828 -0.672,1.5 -1.5,1.5z"/>
  <path id="svg_20" fill="#191C1F" d="m27,60.0001c-2.756,0 -5,-2.244 -5,-5c0,-2.756 2.244,-5 5,-5c2.756,0 5,2.244 5,5c0,2.756 -2.244,5 -5,5zm0,-7c-1.102,0 -2,0.898 -2,2c0,1.102 0.898,2 2,2c1.102,0 2,-0.898 2,-2c0,-1.102 -0.898,-2 -2,-2z"/>
  <path id="svg_21" fill="#191C1F" d="m51,60.0001c-2.756,0 -5,-2.244 -5,-5c0,-2.756 2.244,-5 5,-5c2.756,0 5,2.244 5,5c0,2.756 -2.244,5 -5,5zm0,-7c-1.102,0 -2,0.898 -2,2c0,1.102 0.898,2 2,2c1.102,0 2,-0.898 2,-2c0,-1.102 -0.898,-2 -2,-2z"/>
 </g>
</svg>