<svg width="72" height="72" xmlns="http://www.w3.org/2000/svg">

 <g>
  <title>background</title>
  <rect fill="none" id="canvas_background" height="402" width="582" y="-1" x="-1"/>
 </g>
 <g>
  <title>Layer 1</title>
  <path id="svg_1" fill="#ECEFF2" d="m8.33397,55.246c0,-13.834 -7.166,-23.334 -7.166,-30c0,-6.666 3.832,-20.66596 34.49803,-20.66596c30.666,0 35.166,18.83396 35.166,26.16596c0.002,34.334 -62.49803,49 -62.49803,24.5z"/>
  <path id="svg_2" fill="#C2C8CD" d="m53.25,16.5001l2,0l0,4l-2,0l0,-4z"/>
  <path id="svg_3" fill="#C2C8CD" d="m57.75,22.5l4,0l0,2l-4,0l0,-2z"/>
  <path id="svg_4" fill="#F3F3F1" d="m42.5,48.64l0,-31.14c0,-2.21 -1.79,-4 -4,-4l-21,0c-2.21,0 -4,1.79 -4,4l0,31.14c0,2.21 1.79,4 4,4l21,0c2.21,0 4,-1.79 4,-4z"/>
  <path id="svg_5" fill="#2A6CEA" d="m48,58.5001c0,0 10.5,-4.464 10.5,-13.392c0,-3.572 0,-8.036 0,-8.036l-10.5,-3.572l-10.5,3.572l0,8.036c0,8.928 10.5,13.392 10.5,13.392z"/>
  <path id="svg_6" fill="#E1E6EA" d="m18,48.64l0,-31.14c0,-2.21 1.79,-4 4,-4l-4.5,0c-2.21,0 -4,1.79 -4,4l0,31.14c0,2.21 1.79,4 4,4l4.5,0c-2.21,0 -4,-1.79 -4,-4z"/>
  <path id="svg_7" fill-opacity="0.1" fill="#191C1F" d="m42,45.1081c0,-5.358 0,-8.036 0,-8.036l8.25,-2.806l-2.25,-0.766l-10.5,3.572l0,8.036c0,8.928 10.5,13.392 10.5,13.392c0,0 0.942,-0.406 2.25,-1.198c-3.084,-1.868 -8.25,-5.926 -8.25,-12.194z"/>
  <path id="svg_8" fill="#191C1F" d="m30.5,54.0001l-13,0c-3.034,0 -5.5,-2.466 -5.5,-5.5l0,-31c0,-3.034 2.466,-5.5 5.5,-5.5l21,0c3.034,0 5.5,2.466 5.5,5.5l0,11l-3,0l0,-11c0,-1.378 -1.122,-2.5 -2.5,-2.5l-21,0c-1.378,0 -2.5,1.122 -2.5,2.5l0,31c0,1.378 1.122,2.5 2.5,2.5l13,0l0,3z"/>
  <path id="svg_9" fill="#191C1F" d="m20.5595,37.5599l-2.12,-2.12l5,-5c0.478,-0.48 1.2159,-0.578 1.8039,-0.242l2.546,1.456l5.692,-5.254l2.036,2.206l-6.5,6c-0.482,0.444 -1.196,0.524 -1.7619,0.2l-2.506,-1.432l-4.19,4.186z"/>
  <path id="svg_10" fill="#191C1F" d="m36,34l-3,0l0,-5l-5,0l0,-3l6.5,0c0.828,0 1.5,0.672 1.5,1.5l0,6.5z"/>
  <path id="svg_11" fill="white" d="m47.4995,50.9999c-0.396,0 -0.78,-0.158 -1.06,-0.44l-4,-4l2.122,-2.122l2.778,2.778l4.9599,-6.616l2.398,1.8l-5.9999,8c-0.26,0.348 -0.658,0.566 -1.094,0.596c-0.034,0.004 -0.068,0.004 -0.104,0.004z"/>
 </g>
</svg>