<svg width="16" height="32" xmlns="http://www.w3.org/2000/svg">

 <g>
  <title>background</title>
  <rect fill="none" id="canvas_background" height="402" width="582" y="-1" x="-1"/>
 </g>
 <g>
  <title>Layer 1</title>
  <path id="svg_1" fill="#2a6cea" d="m14.8387,2.27597c0.2429,-0.25147 0.3773,-0.58827 0.3742,-0.93786c-0.003,-0.349601 -0.1432,-0.684017 -0.3904,-0.931228c-0.2472,-0.247211 -0.5817,-0.387436 -0.9313,-0.390474c-0.3495,-0.003038 -0.6863,0.131354 -0.9378,0.374232l-10.89602,10.89596c-1.249808,1.2502 -1.951911,2.9456 -1.951911,4.7134c0,1.7677 0.702103,3.4631 1.951911,4.7133l10.89602,10.896c0.2515,0.2429 0.5883,0.3773 0.9378,0.3742c0.3496,-0.003 0.6841,-0.1432 0.9313,-0.3904c0.2472,-0.2472 0.3874,-0.5817 0.3904,-0.9313c0.0031,-0.3496 -0.1313,-0.6864 -0.3742,-0.9378l-10.89599,-10.896c-0.74988,-0.7501 -1.17114,-1.7674 -1.17114,-2.828c0,-1.0607 0.42126,-2.0779 1.17114,-2.828l10.89599,-10.89603z"/>
 </g>
</svg>