<svg width="24" height="24" xmlns="http://www.w3.org/2000/svg">

 <g>
  <title>background</title>
  <rect fill="none" id="canvas_background" height="402" width="582" y="-1" x="-1"/>
 </g>
 <g>
  <title>Layer 1</title>
  <circle fill="#ffffff" id="svg_2" stroke-width="2" stroke="#191C1F" r="11" cy="11.999999" cx="12"/>
  <path id="svg_1" fill="#191C1F" d="m17,11l-4,0l0,-4c0,-0.26522 -0.1054,-0.51957 -0.2929,-0.70711c-0.1875,-0.18753 -0.4419,-0.29289 -0.7071,-0.29289c-0.2652,0 -0.5196,0.10536 -0.7071,0.29289c-0.1875,0.18754 -0.2929,0.44189 -0.2929,0.70711l0,4l-4,0c-0.26522,0 -0.51957,0.1054 -0.70711,0.2929c-0.18753,0.1875 -0.29289,0.4419 -0.29289,0.7071c0,0.2652 0.10536,0.5196 0.29289,0.7071c0.18754,0.1875 0.44189,0.2929 0.70711,0.2929l4,0l0,4c0,0.2652 0.1054,0.5196 0.2929,0.7071c0.1875,0.1875 0.4419,0.2929 0.7071,0.2929c0.2652,0 0.5196,-0.1054 0.7071,-0.2929c0.1875,-0.1875 0.2929,-0.4419 0.2929,-0.7071l0,-4l4,0c0.2652,0 0.5196,-0.1054 0.7071,-0.2929c0.1875,-0.1875 0.2929,-0.4419 0.2929,-0.7071c0,-0.2652 -0.1054,-0.5196 -0.2929,-0.7071c-0.1875,-0.1875 -0.4419,-0.2929 -0.7071,-0.2929z"/>
 </g>
</svg>