<svg width="24" height="24" xmlns="http://www.w3.org/2000/svg">

 <g>
  <title>background</title>
  <rect fill="none" id="canvas_background" height="402" width="582" y="-1" x="-1"/>
 </g>
 <g>
  <title>Layer 1</title>
  <circle fill="#ffffff" id="svg_2" stroke-width="2" stroke="#2a6cea" r="11" cy="12.327869" cx="12"/>
  <path id="svg_1" fill="#2a6cea" d="m16.2426,14.8286l-2.8284,-2.8284l2.8284,-2.82845c0.1876,-0.18754 0.2929,-0.44189 0.2929,-0.70711c0,-0.26522 -0.1053,-0.51957 -0.2929,-0.70711c-0.1875,-0.18753 -0.4418,-0.29289 -0.7071,-0.29289c-0.2652,0 -0.5195,0.10536 -0.7071,0.29289l-2.8284,2.82847l-2.82843,-2.82847c-0.18753,-0.18753 -0.44189,-0.29289 -0.7071,-0.29289c-0.26522,0 -0.51957,0.10536 -0.70711,0.29289c-0.18754,0.18754 -0.29289,0.44189 -0.29289,0.70711c0,0.26522 0.10535,0.51957 0.29289,0.70711l2.82844,2.82845l-2.82844,2.8284c-0.18754,0.1875 -0.29289,0.4419 -0.29289,0.7071c0,0.2652 0.10535,0.5196 0.29289,0.7071c0.18754,0.1876 0.44189,0.2929 0.70711,0.2929c0.26521,0 0.51957,-0.1053 0.7071,-0.2929l2.82843,-2.8284l2.8284,2.8284c0.1876,0.1876 0.4419,0.2929 0.7071,0.2929c0.2653,0 0.5196,-0.1053 0.7071,-0.2929c0.1876,-0.1875 0.2929,-0.4419 0.2929,-0.7071c0,-0.2652 -0.1053,-0.5196 -0.2929,-0.7071z"/>
 </g>
</svg>